<?xml version="1.0" encoding="utf-8"?>
<!-- Generator: Adobe Illustrator 21.1.0, SVG Export Plug-In . SVG Version: 6.00 Build 0)  -->
<svg version="1.1" id="Capa_1" xmlns="http://www.w3.org/2000/svg" xmlns:xlink="http://www.w3.org/1999/xlink" x="0px" y="0px"
	 viewBox="0 0 512 512" style="enable-background:new 0 0 512 512;" xml:space="preserve">
<style type="text/css">
	.st0{fill:#145388;}
</style>
<g>
	<g>
		<path class="st0" d="M137.3,405v35c0,12.5,10.2,22.8,22.8,22.8h192c12.5,0,22.8-10.2,22.8-22.8v-35c0-12.5-10.2-22.7-22.8-22.7
			H160C147.5,382.3,137.3,392.5,137.3,405L137.3,405z M354.7,405v35c0,1.5-1.3,2.8-2.8,2.8H160c-1.5,0-2.8-1.2-2.8-2.8v-35
			c0-1.5,1.3-2.7,2.8-2.7h192C353.5,402.3,354.7,403.5,354.7,405z"/>
		<path class="st0" d="M485.5,283.7h-5v-42.5c0,0,0,0,0-0.1c0,0,0,0,0,0c0-0.9-0.1-1.4-0.2-1.6c-0.3-1.7-1-3.3-2.2-4.7l-23.3-27.8
			c7.2-11.6,6.6-27-2.6-38L443,158c-5.5-6.6-13.3-10.7-21.9-11.4c-8.6-0.8-17.1,1.9-23.7,7.4c0,0,0,0,0,0
			c-13.7,11.5-15.5,31.9-4,45.6l9.3,11.1c5.5,6.6,13.3,10.7,22,11.4c1,0.1,1.9,0.1,2.9,0.1c4.2,0,8.2-0.8,12-2.3l20.9,25v38.9h-80.4
			c-0.8-56.2-9.3-84.1-49.7-103.4l-16-16.4c11.8-11.9,20.1-26.6,20.1-42.1V97.4V79.5C334.5,36.2,299.3,1,256,1s-78.5,35.2-78.5,78.5
			v17.9v24.4c0,15.5,8.3,30.2,20.1,42.1l-16.1,16.4c-40.4,19.4-48.9,47.3-49.7,103.4H51.5v-38.9l20.9-25c3.8,1.5,7.9,2.3,12,2.3
			c1,0,2,0,2.9-0.1c8.6-0.8,16.4-4.8,21.9-11.4l9.3-11.1c5.5-6.6,8.2-15,7.4-23.6c-0.8-8.6-4.8-16.5-11.4-22
			c-6.6-5.5-15-8.2-23.6-7.4c-8.6,0.8-16.4,4.8-22,11.4l-9.3,11.1c-9.2,11-9.8,26.4-2.6,37.9l-23.3,27.8c-1.4,1.7-2.2,3.7-2.3,5.7
			c0,0.2,0,0.3,0,0.5c0,0,0,0.1,0,0.1c0,0,0,0,0,0v42.5h-5C11.9,283.7,0,295.6,0,310.2v17.2C0,342.1,11.9,354,26.5,354h12.2
			l36.3,142.1c0.9,3.7,3.8,14.9,16.7,14.9h328.4c12.9,0,15.8-11.2,16.7-14.9L473.3,354h12.2c14.6,0,26.5-11.9,26.5-26.5v-17.2
			C512,295.6,500.1,283.7,485.5,283.7L485.5,283.7z M435.4,199.4c-2.5,2.1-5.7,3.1-9,2.8c-3.3-0.3-6.3-1.8-8.4-4.4l-9.3-11.1
			c-4.4-5.2-3.7-13,1.5-17.4c2.5-2.1,5.7-3.1,9.1-2.8c3.3,0.3,6.3,1.8,8.4,4.4l9.3,11.1C441.3,187.2,440.6,195,435.4,199.4
			L435.4,199.4z M75,181.9l9.3-11.1c2.1-2.5,5.1-4.1,8.4-4.4c0.4,0,0.8-0.1,1.1-0.1c2.9,0,5.7,1,7.9,2.9c2.5,2.1,4.1,5.1,4.4,8.4
			c0.3,3.3-0.7,6.5-2.8,9L94,197.8c-2.1,2.5-5.1,4-8.4,4.3c-3.3,0.3-6.5-0.7-9-2.8C71.4,195,70.7,187.2,75,181.9L75,181.9z M256,21
			c32.2,0,58.5,26.2,58.5,58.5V87c-20-1.7-36.5-8-51.3-13.7c-13.3-5.1-26.2-10.1-39-10.1c-8.8,0-17.5,2.3-26.1,8.6
			C201.8,43.1,226.4,21,256,21L256,21z M197.5,121.8v-21.2c17.8-24.3,30.9-19.3,58.5-8.7c15.7,6,34.8,13.4,58.5,15.1v14.7
			c0,24.6-38,50.6-58.5,50.6C235.5,172.3,197.5,146.4,197.5,121.8z M310.1,188.2l-27.5,25.3L271,190c9.1-2.6,18.9-7.2,27.9-13.4
			L310.1,188.2z M241,190l-11.7,23.5l-27.5-25.3l11.2-11.5C222.1,182.8,231.9,187.5,241,190z M185.8,200.6l39.8,36.7
			c1.9,1.7,4.3,2.6,6.8,2.6c0.6,0,1.2-0.1,1.8-0.2c3.1-0.6,5.7-2.6,7.1-5.4l14.7-29.5l14.7,29.5c1.4,2.8,4,4.8,7.1,5.4
			c3.1,0.6,6.3-0.4,8.6-2.5l39.8-36.7c25.8,13.7,33.1,31.8,33.9,83.2H151.9C152.7,232.4,160,214.3,185.8,200.6L185.8,200.6z
			 M492,327.5c0,3.6-2.9,6.5-6.5,6.5H300.9c-5.5,0-10,4.5-10,10s4.5,10,10,10h151.8l-35,137l-323.2,0l-35-137H211
			c5.5,0,10-4.5,10-10s-4.5-10-10-10H26.5c-3.5,0-6.5-3-6.5-6.5v-17.2c0-3.5,3-6.5,6.5-6.5h459c3.5,0,6.5,3,6.5,6.5V327.5z"/>
		<path class="st0" d="M256,354L256,354c5.5,0,10-4.5,10-10s-4.5-10-10-10s-10,4.5-10,10S250.4,354,256,354L256,354z"/>
	</g>
</g>
</svg>
