<?xml version="1.0" encoding="UTF-8" standalone="no"?>
<svg
   xmlns:dc="http://purl.org/dc/elements/1.1/"
   xmlns:cc="http://creativecommons.org/ns#"
   xmlns:rdf="http://www.w3.org/1999/02/22-rdf-syntax-ns#"
   xmlns:svg="http://www.w3.org/2000/svg"
   xmlns="http://www.w3.org/2000/svg"
   xmlns:sodipodi="http://sodipodi.sourceforge.net/DTD/sodipodi-0.dtd"
   xmlns:inkscape="http://www.inkscape.org/namespaces/inkscape"
   version="1.0"
   width="395.87628"
   height="480"
   viewBox="0 0 2226.8041 878.62268"
   id="svg3342"
   xml:space="preserve"
   style="fill-rule:evenodd"
   inkscape:version="0.47 r22583"
   sodipodi:docname="Coat_of_Arms_of_Kamchatka_Krai.svg"><metadata
   id="metadata19"><rdf:RDF><cc:Work
       rdf:about=""><dc:format>image/svg+xml</dc:format><dc:type
         rdf:resource="http://purl.org/dc/dcmitype/StillImage" /><dc:title /></cc:Work></rdf:RDF></metadata><sodipodi:namedview
   pagecolor="#ffffff"
   bordercolor="#666666"
   borderopacity="1"
   objecttolerance="10"
   gridtolerance="10"
   guidetolerance="10"
   inkscape:pageopacity="0"
   inkscape:pageshadow="2"
   inkscape:window-width="1280"
   inkscape:window-height="972"
   id="namedview17"
   showgrid="false"
   inkscape:zoom="0.57346117"
   inkscape:cx="241.72402"
   inkscape:cy="217.25831"
   inkscape:window-x="-8"
   inkscape:window-y="-8"
   inkscape:window-maximized="1"
   inkscape:current-layer="svg3342" />
 <defs
   id="defs3344" />
 <path
   d="m 2176.701,502.71259 c 18.9271,20.76684 35.6292,22.95446 48.989,7.65047 l 1.1141,-1421.05173 -2226.8041,0 1.1141029,1421.05173 C 15.587977,525.66707 32.29015,523.47943 50.103116,502.71259 l 433.113944,-688.66147 59.00965,0 -139.17446,-315.91235 c -28.95084,-78.70449 3.33914,-121.33513 94.63868,-127.89495 11.1347,-47.00581 33.40099,-74.33238 66.80198,-81.98606 14.47703,-4.37212 27.8367,-5.46283 41.19642,-6.55666 11.13471,1.09381 23.38353,2.18452 37.85733,6.55666 33.40099,7.65356 55.67029,34.98025 66.80198,81.98606 77.93986,-5.46595 106.88761,37.16466 84.61804,126.80111 l -122.47228,317.00466 65.69094,0 105.77341,185.82942 c 8.90656,14.21021 18.92718,14.21021 27.83365,0 l 110.22672,-173.80691 67.91918,0 -160.32982,-362.9156 c -33.40412,-90.7303 3.33914,-139.92052 109.1125,-147.57116 12.24562,-54.65618 38.96842,-86.35513 76.82262,-95.10241 13.3629,-3.27832 24.4976,-6.55666 37.8574,-6.55666 13.3597,0 25.6085,3.27832 37.8541,6.55666 37.8574,8.74736 64.5769,40.44598 76.8258,95.10241 105.7734,7.65047 142.5166,56.84086 109.1125,147.57116 l -160.3299,362.9156 67.9193,0 110.2267,173.80691 c 10.0206,14.21021 18.9271,14.21021 27.8336,0 l 105.7734,-185.82942 65.691,0 -122.4756,-317.00466 c -22.2663,-89.63645 6.6814,-132.26709 84.6179,-126.80111 12.2489,-47.00581 34.5183,-74.33238 66.8052,-81.98606 13.3597,-4.37212 26.7225,-5.46283 37.8573,-6.55666 13.3597,1.09381 27.8336,2.18452 41.1933,6.55666 33.4041,7.65356 55.6703,34.98025 66.8051,81.98606 92.4137,6.55975 123.5864,49.19046 94.6387,127.89495 l -139.1744,315.91235 59.0096,0 433.1139,688.66147 0,0 z"
   id="_50139120"
   style="color:#000000;fill:#0051ba;fill-opacity:1;fill-rule:nonzero;stroke-width:3.75000024;stroke-linecap:butt;stroke-linejoin:miter;stroke-miterlimit:4;stroke-opacity:1;stroke-dasharray:none;stroke-dashoffset:0;marker:none;visibility:visible;display:inline;overflow:visible;enable-background:accumulate" /><path
   d="m 2225.6889,510.36399 c -13.3597,15.30401 -30.0619,13.11638 -48.989,-7.65046 l -433.114,-688.66148 -59.0096,0 139.1745,-315.91234 c 28.9477,-78.70449 -2.2251,-121.33513 -94.6387,-127.89495 -11.1348,-47.00581 -33.401,-74.33238 -66.8051,-81.98606 -13.3598,-4.37213 -27.8336,-5.46283 -41.1933,-6.55666 -11.1347,1.0938 -24.4977,2.18452 -37.8573,6.55666 -32.2869,7.65355 -54.5565,34.98025 -66.8052,81.98606 -77.9367,-5.46596 -106.8844,37.16466 -84.6179,126.8011 l 122.4756,317.00467 -65.691,0 -105.7734,185.82942 c -8.9066,14.21021 -17.813,14.21021 -27.8337,0 l -110.2266,-173.80691 -67.9192,0 160.3298,-362.91561 c 33.4041,-90.73029 -3.3391,-139.92051 -109.1125,-147.57115 -12.2489,-54.65618 -38.9684,-86.35513 -76.8258,-95.10241 -12.2456,-3.27832 -24.4944,-6.55666 -37.8541,-6.55666 -13.3598,0 -24.4946,3.27832 -37.8574,6.55666 -37.8542,8.74736 -64.5768,40.44597 -76.82262,95.10241 -105.77344,7.65047 -142.51662,56.84086 -109.11249,147.57115 l 160.32981,362.91561 -67.91918,0 L 871.7938,-0.12005 c -8.90655,14.21021 -18.92709,14.21021 -27.83364,0 l -105.77343,-185.82942 -65.69092,0 122.47227,-317.00467 c 22.2694,-89.63644 -6.67831,-132.26708 -84.61805,-126.8011 -11.13155,-47.00581 -33.40099,-74.33238 -66.80198,-81.98606 -14.47387,-4.37213 -26.72254,-5.46283 -37.85732,-6.55666 -13.35975,1.0938 -26.71946,2.18452 -41.19643,6.55666 -33.40099,7.65355 -55.6672,34.98025 -66.80198,81.98606 -91.29958,6.55974 -123.58952,49.19046 -94.63867,127.89495 l 139.17445,315.91234 -59.00965,0 L 50.1045,502.71353 c -17.813018,20.76684 -34.51514,22.95445 -48.9890134,7.65046 l 0,408.82654 c 175.9176334,74.3324 336.2480134,77.6106 480.9893334,12.0257 140.2886,-78.7045 280.57667,-79.7984 420.86498,-3.2815 71.25839,34.9803 141.4028,52.4687 210.4328,51.3779 70.1442,1.0908 140.2886,-16.3977 210.4327,-51.3779 140.2886,-76.517 280.5767,-75.4231 420.8651,3.2815 144.7418,65.5851 305.0719,62.3068 480.9893,-12.0257 l 0,-408.82654 -8e-4,0 z m -327.342,-334.49214 0,0 291.713,476.59678 c 18.9271,30.6082 23.3804,60.1222 13.3597,90.7303 -4.4532,8.7443 -8.9064,16.3947 -15.5879,24.0483 -10.0206,13.1164 -21.1522,24.0483 -34.5152,32.7926 -11.1315,8.7442 -23.3803,17.4916 -34.5151,26.2357 -21.1553,12.0226 -40.0825,22.9544 -60.1235,30.6081 -17.8131,8.7443 -34.5152,14.2102 -51.2171,19.6762 -37.8543,10.9288 -69.0303,12.0225 -97.9778,5.4659 -12.2488,-2.1876 -23.3803,-10.9319 -34.5151,-24.0514 -11.1347,-14.2102 -22.2694,-28.4203 -31.176,-44.815 0,0 -1.1142,0 -1.1142,-1.0938 L 1437.3995,164.94059 c -31.1761,-43.72449 -31.1761,-76.51704 -1.1141,-99.47454 L 1507.5437,8.6252 c 21.1553,-20.76994 38.9683,-20.76994 53.4422,0 l 34.5183,61.21602 c 17.813,17.48853 36.74,17.48853 54.5564,0 l 24.4945,-47.00581 c 7.7924,-13.11638 17.813,-19.67613 31.176,-21.86065 6.6783,2.18452 12.2457,3.27832 18.9272,4.37212 5.5673,2.18452 11.1346,4.37212 17.8129,8.74427 6.6815,4.37212 12.2488,8.74426 18.9303,13.11638 6.6783,4.37212 13.3598,9.83807 20.0412,16.39782 7.7925,4.37212 14.4739,9.83807 20.0412,16.39782 6.6784,5.46283 13.3598,10.92878 20.0412,17.48853 28.9478,27.32658 53.4423,60.12216 76.8226,98.38069 l -8e-4,-5.4e-4 z m -410.8439,-673.36121 0,0 c 30.0619,0 52.3312,12.02258 70.1442,33.8864 11.1347,-40.44597 33.404,-76.51704 66.805,-108.21877 22.2663,15.30402 47.8749,52.46873 74.5975,112.59089 22.2694,-30.60813 41.1964,-42.63063 55.6702,-36.07385 6.6815,89.63644 -20.0411,193.48309 -79.0506,309.35581 l -110.2267,0 c -53.4454,-124.6167 -80.1648,-228.4631 -77.9399,-311.54048 l 3e-4,0 z m -455.3815,8.74426 0,0 c 28.9478,-63.40042 56.7845,-104.9405 81.279,-124.61668 24.4945,19.67613 52.3281,61.21601 81.279,124.61668 24.4945,-34.98025 45.6496,-48.0966 63.4629,-41.53678 6.6814,102.7528 -24.4945,222.99408 -92.4138,356.354 l -104.6593,0 c -67.91608,-133.36093 -99.09191,-253.6012 -92.41059,-356.354 17.81303,-6.55975 38.96829,6.55666 63.46279,41.53678 l 0,0 z m 56.7845,561.86468 0,0 c 7.7924,13.11639 16.6989,18.58233 24.4945,20.76995 8.9065,-2.18762 16.7021,-7.65356 24.4945,-20.76995 l 23.3803,-50.28406 c 16.7021,-29.51428 46.7638,-29.51428 87.9605,0 l 45.6497,34.98025 c 37.8542,36.07386 64.5767,68.8664 81.2759,99.47454 l 390.8041,647.12242 c 7.7955,30.6082 -4.4532,37.1677 -36.7401,21.8637 -140.2886,-100.5684 -285.0297,-100.5684 -435.3392,0 -59.0127,42.6306 -119.1362,64.4943 -181.485,66.679 -61.2376,-2.1845 -122.47561,-24.0483 -181.48492,-66.679 -149.19512,-100.5684 -295.05085,-100.5684 -435.33919,0 -33.40099,15.304 -45.64966,8.7443 -36.74318,-21.8637 L 850.63809,157.29031 c 17.81617,-30.60814 43.42466,-63.40043 81.27893,-99.47454 l 45.64965,-34.98025 c 41.19643,-29.51428 71.25833,-29.51428 87.95743,0 l 23.3835,50.28406 0,0 z m -486.55747,-644.94027 0,0 c 33.40099,31.70173 55.6703,67.7728 66.80508,108.21877 16.69892,-21.86374 41.19333,-33.8864 70.14417,-33.8864 2.22505,83.07662 -23.38353,186.92327 -77.93985,311.54048 l -110.22671,0 c -60.12353,-115.8722 -85.73219,-219.71887 -79.05065,-309.35581 15.58798,-6.55666 33.40099,5.46594 55.67029,36.07385 27.8336,-60.12216 52.32811,-97.28682 74.59742,-112.59089 l 2.5e-4,0 z m -197.07304,649.31214 0,0 c 6.68146,-6.55975 13.36293,-12.02567 20.04121,-17.48853 6.68147,-6.55975 13.36293,-12.02567 20.04122,-16.39782 6.68146,-6.55975 13.36292,-12.02567 20.04122,-16.39782 6.68146,-4.37212 13.36292,-8.74426 18.92711,-13.11638 5.56737,-4.37212 11.1347,-6.55976 17.81617,-8.74427 5.56736,-1.0938 12.24565,-2.18761 18.92711,-4.37212 13.35975,2.18451 24.49449,8.74427 31.17605,21.86065 l 24.49448,47.0058 c 18.92711,17.48853 36.74318,17.48853 54.55641,0 L 665.8116,8.62495 c 13.36293,-20.76994 31.17605,-20.76994 53.44536,0 l 71.25521,56.84085 c 31.17605,22.95757 30.06191,55.75004 -1.11094,99.47454 L 384.12036,812.06533 c 0,1.0937 0,1.0937 -1.11094,1.0937 -10.02061,16.3948 -20.04122,30.6049 -31.17605,44.8151 -11.13471,13.1195 -22.26941,21.8637 -34.51514,24.0514 -28.94775,6.5567 -60.12353,5.4628 -97.98112,-5.466 -15.58797,-5.4659 -33.40099,-10.9318 -51.21396,-19.6761 -18.93026,-7.6536 -38.97148,-18.5854 -60.12353,-30.6081 -11.134709,-8.7443 -23.383542,-17.4917 -34.518242,-26.2358 -12.245654,-8.7443 -23.380358,-19.6761 -34.51514,-32.7925 -5.567365,-7.6536 -11.131555,-15.3041 -15.587971,-24.0483 -11.131556,-30.6082 -5.564191,-60.1222 13.362925,-90.7303 L 328.4542,175.8716 c 23.38035,-38.25852 48.98901,-71.05411 76.82261,-98.38068 l -0.001,5.3e-4 z"
   id="_49861680"
   style="fill:#ffffff;fill-rule:nonzero" /><path
   d="m 2190.0599,652.46863 -291.713,-476.59678 c -23.3804,-38.25851 -47.8749,-71.0541 -76.8227,-98.38068 -6.6814,-6.55975 -13.3629,-12.02567 -20.0411,-17.48853 -5.5674,-6.55975 -12.2488,-12.02567 -20.0413,-16.39782 -6.6814,-6.55975 -13.3628,-12.02567 -20.0412,-16.39782 -6.6814,-4.37212 -12.2487,-8.74426 -18.9302,-13.11638 -6.6784,-4.37212 -12.2457,-6.55975 -17.8131,-8.74427 -6.6814,-1.0938 -12.2488,-2.1876 -18.927,-4.37212 -13.363,2.18452 -23.3836,8.74427 -31.1761,21.86065 l -24.4945,47.0058 c -17.8162,17.48853 -36.7432,17.48853 -54.5564,0 L 1560.985,8.62467 c -14.4738,-20.76994 -32.2867,-20.76994 -53.4422,0 l -71.2583,56.84085 c -30.0619,22.95757 -30.0619,55.75004 1.1141,99.47454 l 405.2783,647.12497 c 0,1.0938 1.1141,1.0938 1.1141,1.0938 8.9065,16.3947 20.0412,30.6048 31.176,44.815 11.1347,13.1195 22.2663,21.8638 34.5152,24.0514 28.9477,6.5566 60.1235,5.4629 97.9777,-5.466 16.7021,-5.4659 33.4041,-10.9318 51.2171,-19.6761 20.0412,-7.6535 38.9684,-18.5854 60.1235,-30.6081 11.1347,-8.7443 23.3835,-17.4916 34.5151,-26.2358 13.363,-8.7442 24.4946,-19.6761 34.5152,-32.7925 6.6815,-7.6536 11.1347,-15.304 15.5879,-24.0483 10.0207,-30.6081 5.5675,-60.1222 -13.3597,-90.7303 l 9e-4,5e-4 z"
   id="_50421744"
   style="fill:#000000;fill-rule:nonzero" /><path
   d="m 1557.6484,-463.60169 c -17.813,-21.86374 -40.0824,-33.8864 -70.1441,-33.8864 -2.225,83.07662 24.4945,186.92327 77.9399,311.54047 l 110.2267,0 c 59.0096,-115.8722 85.7322,-219.71885 79.0506,-309.3558 -14.4739,-6.55666 -33.401,5.46595 -55.6703,36.07385 -26.7225,-60.12216 -52.3312,-97.28683 -74.5974,-112.5909 -33.401,31.70174 -55.6703,67.77281 -66.8051,108.21878 l -3e-4,0 z"
   id="_50478864"
   style="color:#000000;fill:#d81e05;fill-opacity:1;fill-rule:nonzero;stroke:#ffffff;stroke-width:15.46391678;stroke-linecap:butt;stroke-linejoin:miter;stroke-miterlimit:4;stroke-opacity:1;stroke-dasharray:none;stroke-dashoffset:0;marker:none;visibility:visible;display:inline;overflow:visible;enable-background:accumulate" /><path
   d="m 1113.4008,-613.36029 c -24.4945,19.67614 -52.3312,61.21601 -81.2789,124.6167 -24.4946,-34.98026 -45.64975,-48.09662 -63.46294,-41.53679 -6.68149,102.7528 24.49451,222.99408 92.41064,356.35401 l 104.6593,0 c 67.9192,-133.36094 99.095,-253.60121 92.4137,-356.35401 -17.813,-6.55976 -38.9684,6.55665 -63.4629,41.53679 -28.9508,-63.40043 -56.7844,-104.94051 -81.2789,-124.6167 l 0,0 z"
   id="_50154576"
   style="color:#000000;fill:#d81e05;fill-opacity:1;fill-rule:nonzero;stroke:#ffffff;stroke-width:15.46391678;stroke-linecap:butt;stroke-linejoin:miter;stroke-miterlimit:4;stroke-opacity:1;stroke-dasharray:none;stroke-dashoffset:0;marker:none;visibility:visible;display:inline;overflow:visible;enable-background:accumulate" /><path
   d="m 1113.4008,93.88859 c -7.7956,-2.18761 -16.7021,-7.65356 -24.4945,-20.76994 l -23.3835,-50.28407 c -16.699,-29.51428 -46.7608,-29.51428 -87.95745,0 L 931.9157,57.81483 c -37.85418,36.07385 -63.46284,68.86641 -81.27893,99.47454 L 459.83262,804.41173 c -8.90651,30.6082 3.34232,37.1678 36.74318,21.8638 140.28859,-100.5684 286.14484,-100.5684 435.33916,0 59.00965,42.6306 120.24734,64.4943 181.48504,66.679 62.3487,-2.1846 122.4722,-24.0484 181.485,-66.679 150.3092,-100.5684 295.0508,-100.5684 435.3391,0 32.2869,15.304 44.5358,8.7443 36.7401,-21.8638 L 1376.16,157.28937 c -16.6988,-30.60813 -43.4216,-63.40043 -81.2758,-99.47454 l -45.6497,-34.98025 c -41.1964,-29.51428 -71.2583,-29.51428 -87.9605,0 l -23.3803,50.28407 c -7.7925,13.11638 -15.588,18.58233 -24.4945,20.76994 l 0,0 z"
   id="_50473648"
   style="fill:#000000;fill-rule:nonzero" /><path
   d="m 669.15567,-463.60169 c -11.1347,-40.44597 -33.40408,-76.51704 -66.80507,-108.21878 -22.2694,15.30402 -46.76381,52.46874 -74.59741,112.5909 -22.26941,-30.60814 -40.08253,-42.63064 -55.67029,-36.07385 -6.68147,89.63644 18.92711,193.48309 79.05065,309.3558 l 110.22669,0 c 54.55641,-124.6167 80.16481,-228.46309 77.93986,-311.54047 -28.95084,0 -53.44535,12.02258 -70.14416,33.8864 l -2.7e-4,0 z"
   id="_50475400"
   style="color:#000000;fill:#d81e05;fill-opacity:1;fill-rule:nonzero;stroke:#ffffff;stroke-width:15.46391678;stroke-linecap:butt;stroke-linejoin:miter;stroke-miterlimit:4;stroke-opacity:1;stroke-dasharray:none;stroke-dashoffset:0;marker:none;visibility:visible;display:inline;overflow:visible;enable-background:accumulate" /><path
   d="m 425.31805,60.00345 c -6.67832,5.46283 -13.35975,10.92878 -20.04121,17.48853 -27.8336,27.32658 -53.44226,60.12216 -76.82261,98.38069 L 36.741213,652.46943 c -18.927116,30.6082 -24.494481,60.1222 -13.362926,90.7303 4.456416,8.7443 10.020607,16.3948 15.587972,24.0483 11.134704,13.1164 22.269408,24.0483 34.515139,32.7926 11.134705,8.7442 23.383529,17.4916 34.518232,26.2358 21.15217,12.0225 41.19333,22.9544 60.12354,30.608 17.81302,8.7443 35.62594,14.2103 51.21396,19.6762 37.85733,10.9288 69.03338,12.0226 97.98112,5.4659 12.24566,-2.1876 23.38036,-10.9318 34.51514,-24.0513 11.13471,-14.2103 21.15532,-28.4205 31.17605,-44.8151 1.11095,0 1.11095,0 1.11095,-1.0938 L 789.40125,164.9414 c 31.1727,-43.72449 32.28685,-76.51704 1.11095,-99.47453 L 719.25698,8.62601 c -22.26941,-20.76994 -40.08253,-20.76994 -53.44535,0 l -34.51514,61.21602 c -17.81302,17.48853 -35.62929,17.48853 -54.5564,0 L 552.24561,22.83623 C 545.56414,9.71984 534.42944,3.16009 521.06956,0.97558 c -6.68147,2.18451 -13.35975,3.27831 -18.92712,4.37212 -6.68146,2.18451 -12.2488,4.37212 -17.81616,8.74426 -5.56419,4.37212 -12.24566,8.74427 -18.92712,13.11639 -6.67832,4.37212 -13.35975,9.83806 -20.04121,16.39782 -6.67832,4.37211 -13.35975,9.83806 -20.04122,16.39781 l 10e-4,-5.3e-4 z"
   id="_50475592"
   style="fill:#000000;fill-rule:nonzero" /><path
   d="m 2225.6889,1146.5605 0,-110.4065 c -175.9176,72.1449 -337.3605,76.5201 -482.1045,12.0257 -140.2886,-78.70447 -280.5767,-79.79837 -420.865,-3.2814 -69.0303,33.8863 -139.1744,51.3779 -209.3186,51.3779 -69.0303,0 -139.17442,-17.4916 -209.31858,-51.3779 C 763.79358,968.38123 623.5055,969.47503 483.21716,1048.1797 338.47532,1112.674 177.0326,1108.2988 1.112647,1036.154 l 0,110.4065 c 155.876363,56.8409 298.391193,67.7728 427.545783,33.8864 17.81302,-6.5597 36.74009,-14.2102 54.55641,-21.8637 140.2886,-78.7045 280.57668,-79.7984 420.86498,-3.2784 70.14417,33.8864 140.28868,51.3749 209.31868,51.3749 70.1441,0 140.2886,-17.4885 209.3186,-51.3749 140.2885,-76.5201 280.5766,-75.4262 420.8649,3.2784 17.8163,7.6535 35.6294,15.304 54.5565,21.8637 130.268,33.8864 271.6707,22.9545 427.5458,-33.8864 l 0,0 z"
   id="_50134480"
   style="fill:#ffffff;fill-rule:nonzero" /><path
   d="m 2225.6889,1036.1538 0,-116.96307 c -175.9176,74.3324 -336.248,77.6107 -480.9893,12.0257 -140.2886,-78.7045 -280.5767,-79.7983 -420.865,-3.2814 -70.1442,34.9803 -140.2887,52.4687 -210.4328,51.3779 -69.0303,1.0907 -139.17443,-16.3978 -210.43274,-51.3779 -140.2886,-76.517 -280.57667,-75.4232 -420.86502,3.2814 -144.74184,65.5852 -305.07195,62.3069 -480.9893279,-12.0257 l 0,116.96307 c 175.9176279,72.1449 337.3606079,76.5201 482.1045179,12.0256 140.28859,-78.70437 280.57667,-79.79827 420.86505,-3.2814 70.14416,33.8864 140.28852,51.3779 209.31852,51.3779 70.1442,0 140.2886,-17.4916 209.3186,-51.3779 140.2886,-76.51707 280.5768,-75.42317 420.8651,3.2814 144.7419,64.4943 306.1846,60.1191 482.1045,-12.0256 l 0,0 z"
   id="_50136888"
   style="color:#000000;fill:#0051ba;fill-opacity:1;fill-rule:nonzero;stroke-width:3.75000024;stroke-linecap:butt;stroke-linejoin:miter;stroke-miterlimit:4;stroke-opacity:1;stroke-dasharray:none;stroke-dashoffset:0;marker:none;visibility:visible;display:inline;overflow:visible;enable-background:accumulate" /><path
   d="M 428.66101,1180.4457 C 299.5041,1214.332 156.9903,1203.4001 1.1152284,1146.5592 l 0,116.9631 c 178.1428316,72.1449 339.5858116,77.6106 483.2145316,12.0256 140.2886,-78.7075 280.57667,-79.7983 420.86503,-3.2815 69.0334,34.9803 139.17751,51.378 208.20781,51.378 69.0303,0 139.1744,-16.3978 208.2044,-51.378 140.2886,-76.517 280.5767,-75.4262 420.865,3.2815 143.6309,65.5851 305.072,60.1191 483.2172,-12.0256 l 0,-116.9631 c -155.8764,56.8409 -297.2786,67.7728 -427.5458,33.8865 -18.9271,-6.5598 -36.7401,-14.2103 -54.5564,-21.8638 -140.2886,-78.7045 -280.5767,-79.7983 -420.8651,-3.2783 -69.0302,33.8864 -139.1744,51.3749 -209.3186,51.3749 -69.0302,0 -139.17436,-17.4886 -209.31853,-51.3749 -140.28861,-76.5201 -280.57669,-75.4263 -420.86503,3.2783 -17.81617,7.6535 -36.74318,15.304 -54.5564,21.8638 l -0.002,0 z"
   id="_50138160"
   style="color:#000000;fill:#0051ba;fill-opacity:1;fill-rule:nonzero;stroke-width:3.75000024;stroke-linecap:butt;stroke-linejoin:miter;stroke-miterlimit:4;stroke-opacity:1;stroke-dasharray:none;stroke-dashoffset:0;marker:none;visibility:visible;display:inline;overflow:visible;enable-background:accumulate" /><path
   d="m 1113.4008,1323.6452 c -69.0303,0 -139.17442,-16.3979 -208.20782,-51.3779 -140.28861,-76.5171 -280.57669,-75.4262 -420.86503,3.2814 -143.62769,65.585 -305.07196,60.1191 -483.2145286,-12.0257 l 0,50.2841 c 0,5.4659 0,10.9318 1.1141029,16.3947 0,4.3752 1.1109458,15.304 2.2250487,32.7956 0,4.3721 1.1141029,7.6505 1.1141029,12.0226 175.9176341,72.148 335.1328341,76.5201 478.7615541,10.9318 140.2886,-78.7045 280.57669,-79.7983 420.865,-3.2783 69.0334,34.9802 139.17757,51.3749 208.20777,51.3749 69.0303,0 139.1745,-16.3947 208.2046,-51.3749 140.2885,-76.52 280.5766,-75.4262 420.8649,3.2783 143.6308,65.5882 303.9594,61.2161 478.7642,-10.9318 1.1141,-4.3721 1.1141,-7.6505 1.1141,-12.0226 2.225,-17.4916 2.225,-28.4204 2.225,-32.7956 0,-5.4629 1.1141,-10.9288 1.1141,-16.3947 l 0,-50.2841 c -178.1459,72.1449 -339.5858,77.6107 -483.2171,12.0257 -140.2886,-78.7076 -280.5767,-79.7984 -420.865,-3.2814 -69.0303,34.9802 -139.1745,51.3779 -208.2045,51.3779 l -5e-4,0 z"
   id="_50138480"
   style="fill:#ffffff;fill-rule:nonzero" /><path
   d="m 1113.4008,1434.0468 c -69.0303,0 -139.17442,-16.3947 -208.20782,-51.3748 -140.28861,-76.5201 -280.57669,-75.4263 -420.86503,3.2782 -143.62769,65.5882 -302.84417,61.2161 -478.7615451,-10.9318 2.2282057,12.0257 3.3391437,24.0483 7.7924111,34.9803 4.456416,14.2102 8.909658,24.0483 12.248802,30.6081 1.114103,1.0938 2.228206,3.2783 3.339144,5.4659 13.362926,22.9545 32.289938,44.8182 54.556401,65.5852 48.992117,43.7275 121.361487,65.5881 214.889107,67.7758 l 580.08046,9.838 c 4.45328,0 6.67835,0 10.02062,0 5.56734,0 11.13468,0 15.58796,0 1.11093,0 1.11093,0 3.33913,0 53.44231,4.3721 101.32026,24.0483 141.40276,63.4004 38.9684,39.3524 60.1236,84.1705 64.5768,136.6392 4.4532,-52.4687 25.6085,-97.2868 64.5768,-136.6392 40.0825,-39.3523 87.9573,-59.0283 141.4027,-63.4004 2.2251,0 3.3391,0 3.3391,0 5.5674,0 11.1347,0 15.588,0 3.3391,0 6.6815,0 10.0206,0 l 580.0805,-9.838 c 94.6387,-2.1876 165.897,-24.0483 214.886,-67.7758 23.3835,-20.7669 41.1965,-42.6307 54.5564,-65.5852 2.2282,-2.1875 3.3423,-4.3721 3.3423,-5.4659 2.2251,-6.5597 6.6784,-16.3978 12.2457,-30.6081 4.4532,-10.9319 5.5674,-22.9545 7.7956,-34.9803 -174.8036,72.148 -335.1329,76.5201 -478.7641,10.9318 -140.2887,-78.7045 -280.5768,-79.7983 -420.8651,-3.2782 -69.0303,34.9802 -139.1744,51.3748 -208.2045,51.3748 l 8e-4,0 z"
   id="_50138672"
   style="color:#000000;fill:#0051ba;fill-opacity:1;fill-rule:nonzero;stroke-width:3.75000024;stroke-linecap:butt;stroke-linejoin:miter;stroke-miterlimit:4;stroke-opacity:1;stroke-dasharray:none;stroke-dashoffset:0;marker:none;visibility:visible;display:inline;overflow:visible;enable-background:accumulate" />
</svg>