<?xml version="1.0" encoding="utf-8"?>
<!-- Generator: Adobe Illustrator 21.1.0, SVG Export Plug-In . SVG Version: 6.00 Build 0)  -->
<svg version="1.1"
	 id="svg3342" inkscape:version="0.47 r22583" sodipodi:docname="Coat_of_Arms_of_Kamchatka_Krai.svg" xmlns:cc="http://creativecommons.org/ns#" xmlns:dc="http://purl.org/dc/elements/1.1/" xmlns:inkscape="http://www.inkscape.org/namespaces/inkscape" xmlns:rdf="http://www.w3.org/1999/02/22-rdf-syntax-ns#" xmlns:sodipodi="http://sodipodi.sourceforge.net/DTD/sodipodi-0.dtd" xmlns:svg="http://www.w3.org/2000/svg"
	 xmlns="http://www.w3.org/2000/svg" xmlns:xlink="http://www.w3.org/1999/xlink" x="0px" y="0px" viewBox="0 0 1798 480"
	 style="enable-background:new 0 0 1798 480;" xml:space="preserve">
<style type="text/css">
	.st0{fill:#0051BA;}
	.st1{fill:#FFFFFF;}
	.st2{fill:#D81E05;stroke:#FFFFFF;stroke-width:15.4639;}
</style>
<sodipodi:namedview  bordercolor="#666666" borderopacity="1" gridtolerance="10" guidetolerance="10" id="namedview17" inkscape:current-layer="svg3342" inkscape:cx="241.72402" inkscape:cy="217.25831" inkscape:pageopacity="0" inkscape:pageshadow="2" inkscape:window-height="972" inkscape:window-maximized="1" inkscape:window-width="1280" inkscape:window-x="-8" inkscape:window-y="-8" inkscape:zoom="0.57346117" objecttolerance="10" pagecolor="#ffffff" showgrid="false">
	</sodipodi:namedview>
<g>
	<path id="_50139120" class="st0" d="M387,251.3c3.4,3.7,6.3,4.1,8.7,1.4L395.9,0H0l0.2,252.6c2.6,2.7,5.5,2.3,8.7-1.4l77-122.4
		h10.5L71.7,72.7c-5.1-14,0.6-21.6,16.8-22.7c2-8.4,5.9-13.2,11.9-14.6c2.6-0.8,4.9-1,7.3-1.2c2,0.2,4.2,0.4,6.7,1.2
		c5.9,1.4,9.9,6.2,11.9,14.6c13.9-1,19,6.6,15,22.5l-21.8,56.4h11.7l18.8,33c1.6,2.5,3.4,2.5,4.9,0l19.6-30.9h12.1l-28.5-64.5
		c-5.9-16.1,0.6-24.9,19.4-26.2c2.2-9.7,6.9-15.4,13.7-16.9c2.4-0.6,4.4-1.2,6.7-1.2c2.4,0,4.6,0.6,6.7,1.2
		c6.7,1.6,11.5,7.2,13.7,16.9c18.8,1.4,25.3,10.1,19.4,26.2L209.2,131h12.1l19.6,30.9c1.8,2.5,3.4,2.5,4.9,0l18.8-33h11.7
		l-21.8-56.4c-4-15.9,1.2-23.5,15-22.5c2.2-8.4,6.1-13.2,11.9-14.6c2.4-0.8,4.8-1,6.7-1.2c2.4,0.2,4.9,0.4,7.3,1.2
		c5.9,1.4,9.9,6.2,11.9,14.6c16.4,1.2,22,8.7,16.8,22.7l-24.7,56.2H310L387,251.3L387,251.3L387,251.3z"/>
	<path id="_49861680" class="st1" d="M395.7,252.6c-2.4,2.7-5.3,2.3-8.7-1.4l-77-122.4h-10.5l24.7-56.2c5.1-14-0.4-21.6-16.8-22.7
		c-2-8.4-5.9-13.2-11.9-14.6c-2.4-0.8-4.9-1-7.3-1.2c-2,0.2-4.4,0.4-6.7,1.2c-5.7,1.4-9.7,6.2-11.9,14.6c-13.9-1-19,6.6-15,22.5
		l21.8,56.4h-11.7l-18.8,33c-1.6,2.5-3.2,2.5-4.9,0L221.3,131h-12.1l28.5-64.5c5.9-16.1-0.6-24.9-19.4-26.2
		c-2.2-9.7-6.9-15.4-13.7-16.9c-2.2-0.6-4.4-1.2-6.7-1.2c-2.4,0-4.4,0.6-6.7,1.2c-6.7,1.6-11.5,7.2-13.7,16.9
		c-18.8,1.4-25.3,10.1-19.4,26.2l28.5,64.5h-12.1L155,161.9c-1.6,2.5-3.4,2.5-4.9,0l-18.8-33h-11.7l21.8-56.4
		c4-15.9-1.2-23.5-15-22.5c-2-8.4-5.9-13.2-11.9-14.6c-2.6-0.8-4.8-1-6.7-1.2c-2.4,0.2-4.8,0.4-7.3,1.2c-5.9,1.4-9.9,6.2-11.9,14.6
		c-16.2,1.2-22,8.7-16.8,22.7l24.7,56.2H85.9l-77,122.4c-3.2,3.7-6.1,4.1-8.7,1.4v72.7c31.3,13.2,59.8,13.8,85.5,2.1
		c24.9-14,49.9-14.2,74.8-0.6c12.7,6.2,25.1,9.3,37.4,9.1c12.5,0.2,24.9-2.9,37.4-9.1c24.9-13.6,49.9-13.4,74.8,0.6
		c25.7,11.7,54.2,11.1,85.5-2.1L395.7,252.6C395.7,252.6,395.7,252.6,395.7,252.6z M337.5,193.2L337.5,193.2l51.9,84.7
		c3.4,5.4,4.2,10.7,2.4,16.1c-0.8,1.6-1.6,2.9-2.8,4.3c-1.8,2.3-3.8,4.3-6.1,5.8c-2,1.6-4.2,3.1-6.1,4.7c-3.8,2.1-7.1,4.1-10.7,5.4
		c-3.2,1.6-6.1,2.5-9.1,3.5c-6.7,1.9-12.3,2.1-17.4,1c-2.2-0.4-4.2-1.9-6.1-4.3c-2-2.5-4-5.1-5.5-8c0,0-0.2,0-0.2-0.2l-72-115
		c-5.5-7.8-5.5-13.6-0.2-17.7l12.7-10.1c3.8-3.7,6.9-3.7,9.5,0l6.1,10.9c3.2,3.1,6.5,3.1,9.7,0l4.4-8.4c1.4-2.3,3.2-3.5,5.5-3.9
		c1.2,0.4,2.2,0.6,3.4,0.8c1,0.4,2,0.8,3.2,1.6c1.2,0.8,2.2,1.6,3.4,2.3c1.2,0.8,2.4,1.7,3.6,2.9c1.4,0.8,2.6,1.7,3.6,2.9
		c1.2,1,2.4,1.9,3.6,3.1C329,180.5,333.3,186.4,337.5,193.2L337.5,193.2L337.5,193.2z M264.4,73.5L264.4,73.5c5.3,0,9.3,2.1,12.5,6
		c2-7.2,5.9-13.6,11.9-19.2c4,2.7,8.5,9.3,13.3,20c4-5.4,7.3-7.6,9.9-6.4c1.2,15.9-3.6,34.4-14.1,55h-19.6
		C268.8,106.7,264,88.2,264.4,73.5L264.4,73.5z M183.5,75L183.5,75c5.1-11.3,10.1-18.7,14.4-22.2c4.4,3.5,9.3,10.9,14.4,22.2
		c4.4-6.2,8.1-8.6,11.3-7.4c1.2,18.3-4.4,39.6-16.4,63.4h-18.6c-12.1-23.7-17.6-45.1-16.4-63.4C175.4,66.5,179.1,68.8,183.5,75
		L183.5,75L183.5,75z M193.6,174.9L193.6,174.9c1.4,2.3,3,3.3,4.4,3.7c1.6-0.4,3-1.4,4.4-3.7l4.2-8.9c3-5.2,8.3-5.2,15.6,0l8.1,6.2
		c6.7,6.4,11.5,12.2,14.4,17.7l69.5,115c1.4,5.4-0.8,6.6-6.5,3.9c-24.9-17.9-50.7-17.9-77.4,0c-10.5,7.6-21.2,11.5-32.3,11.9
		c-10.9-0.4-21.8-4.3-32.3-11.9c-26.5-17.9-52.5-17.9-77.4,0c-5.9,2.7-8.1,1.6-6.5-3.9l69.5-115c3.2-5.4,7.7-11.3,14.4-17.7l8.1-6.2
		c7.3-5.2,12.7-5.2,15.6,0L193.6,174.9L193.6,174.9L193.6,174.9z M107.1,60.2L107.1,60.2c5.9,5.6,9.9,12,11.9,19.2
		c3-3.9,7.3-6,12.5-6c0.4,14.8-4.2,33.2-13.9,55.4H98c-10.7-20.6-15.2-39.1-14.1-55c2.8-1.2,5.9,1,9.9,6.4
		C98.8,69.6,103.1,63,107.1,60.2L107.1,60.2z M72,175.7L72,175.7c1.2-1.2,2.4-2.1,3.6-3.1c1.2-1.2,2.4-2.1,3.6-2.9
		c1.2-1.2,2.4-2.1,3.6-2.9c1.2-0.8,2.4-1.6,3.4-2.3c1-0.8,2-1.2,3.2-1.6c1-0.2,2.2-0.4,3.4-0.8c2.4,0.4,4.4,1.6,5.5,3.9l4.4,8.4
		c3.4,3.1,6.5,3.1,9.7,0l6.1-10.9c2.4-3.7,5.5-3.7,9.5,0l12.7,10.1c5.5,4.1,5.3,9.9-0.2,17.7l-72,115c0,0.2,0,0.2-0.2,0.2
		c-1.8,2.9-3.6,5.4-5.5,8c-2,2.3-4,3.9-6.1,4.3c-5.1,1.2-10.7,1-17.4-1c-2.8-1-5.9-1.9-9.1-3.5c-3.4-1.4-6.9-3.3-10.7-5.4
		c-2-1.6-4.2-3.1-6.1-4.7c-2.2-1.6-4.2-3.5-6.1-5.8c-1-1.4-2-2.7-2.8-4.3c-2-5.4-1-10.7,2.4-16.1l51.9-84.7
		C62.5,186.4,67.1,180.5,72,175.7L72,175.7L72,175.7z"/>
	<path id="_50421744" d="M389.3,277.9l-51.9-84.7c-4.2-6.8-8.5-12.6-13.7-17.5c-1.2-1.2-2.4-2.1-3.6-3.1c-1-1.2-2.2-2.1-3.6-2.9
		c-1.2-1.2-2.4-2.1-3.6-2.9c-1.2-0.8-2.2-1.6-3.4-2.3c-1.2-0.8-2.2-1.2-3.2-1.6c-1.2-0.2-2.2-0.4-3.4-0.8c-2.4,0.4-4.2,1.6-5.5,3.9
		l-4.4,8.4c-3.2,3.1-6.5,3.1-9.7,0l-6.1-10.9c-2.6-3.7-5.7-3.7-9.5,0l-12.7,10.1c-5.3,4.1-5.3,9.9,0.2,17.7l72,115
		c0,0.2,0.2,0.2,0.2,0.2c1.6,2.9,3.6,5.4,5.5,8c2,2.3,4,3.9,6.1,4.3c5.1,1.2,10.7,1,17.4-1c3-1,5.9-1.9,9.1-3.5
		c3.6-1.4,6.9-3.3,10.7-5.4c2-1.6,4.2-3.1,6.1-4.7c2.4-1.6,4.4-3.5,6.1-5.8c1.2-1.4,2-2.7,2.8-4.3
		C393.5,288.6,392.7,283.3,389.3,277.9L389.3,277.9L389.3,277.9z"/>
	<path id="_50478864" class="st2" d="M276.9,79.5c-3.2-3.9-7.1-6-12.5-6c-0.4,14.8,4.4,33.2,13.9,55.4h19.6
		c10.5-20.6,15.2-39.1,14.1-55c-2.6-1.2-5.9,1-9.9,6.4c-4.8-10.7-9.3-17.3-13.3-20C282.9,65.9,278.9,72.3,276.9,79.5L276.9,79.5
		L276.9,79.5z"/>
	<path id="_50154576" class="st2" d="M197.9,52.9c-4.4,3.5-9.3,10.9-14.4,22.2c-4.4-6.2-8.1-8.6-11.3-7.4
		c-1.2,18.3,4.4,39.6,16.4,63.4h18.6c12.1-23.7,17.6-45.1,16.4-63.4c-3.2-1.2-6.9,1.2-11.3,7.4C207.2,63.7,202.3,56.4,197.9,52.9
		L197.9,52.9L197.9,52.9z"/>
	<path id="_50473648" d="M197.9,178.6c-1.4-0.4-3-1.4-4.4-3.7l-4.2-8.9c-3-5.2-8.3-5.2-15.6,0l-8.1,6.2
		c-6.7,6.4-11.3,12.2-14.4,17.7l-69.5,115c-1.6,5.4,0.6,6.6,6.5,3.9c24.9-17.9,50.9-17.9,77.4,0c10.5,7.6,21.4,11.5,32.3,11.9
		c11.1-0.4,21.8-4.3,32.3-11.9c26.7-17.9,52.5-17.9,77.4,0c5.7,2.7,7.9,1.6,6.5-3.9l-69.5-115c-3-5.4-7.7-11.3-14.4-17.7l-8.1-6.2
		c-7.3-5.2-12.7-5.2-15.6,0l-4.2,8.9C200.9,177.2,199.5,178.2,197.9,178.6L197.9,178.6L197.9,178.6z"/>
	<path id="_50475400" class="st2" d="M119,79.5c-2-7.2-5.9-13.6-11.9-19.2c-4,2.7-8.3,9.3-13.3,20c-4-5.4-7.1-7.6-9.9-6.4
		c-1.2,15.9,3.4,34.4,14.1,55h19.6c9.7-22.2,14.3-40.6,13.9-55.4C126.3,73.5,121.9,75.6,119,79.5L119,79.5L119,79.5z"/>
	<path id="_50475592" d="M75.6,172.6c-1.2,1-2.4,1.9-3.6,3.1c-4.9,4.9-9.5,10.7-13.7,17.5L6.5,277.9c-3.4,5.4-4.4,10.7-2.4,16.1
		c0.8,1.6,1.8,2.9,2.8,4.3c2,2.3,4,4.3,6.1,5.8c2,1.6,4.2,3.1,6.1,4.7c3.8,2.1,7.3,4.1,10.7,5.4c3.2,1.6,6.3,2.5,9.1,3.5
		c6.7,1.9,12.3,2.1,17.4,1c2.2-0.4,4.2-1.9,6.1-4.3c2-2.5,3.8-5.1,5.5-8c0.2,0,0.2,0,0.2-0.2l72-115c5.5-7.8,5.7-13.6,0.2-17.7
		l-12.7-10.1c-4-3.7-7.1-3.7-9.5,0l-6.1,10.9c-3.2,3.1-6.3,3.1-9.7,0l-4.4-8.4c-1.2-2.3-3.2-3.5-5.5-3.9c-1.2,0.4-2.4,0.6-3.4,0.8
		c-1.2,0.4-2.2,0.8-3.2,1.6c-1,0.8-2.2,1.6-3.4,2.3c-1.2,0.8-2.4,1.7-3.6,2.9C78,170.4,76.8,171.4,75.6,172.6L75.6,172.6L75.6,172.6
		z"/>
	<path id="_50134480" class="st1" d="M395.7,365.7v-19.6c-31.3,12.8-60,13.6-85.7,2.1c-24.9-14-49.9-14.2-74.8-0.6
		c-12.3,6-24.7,9.1-37.2,9.1c-12.3,0-24.7-3.1-37.2-9.1c-24.9-13.6-49.9-13.4-74.8,0.6c-25.7,11.5-54.4,10.7-85.7-2.1v19.6
		c27.7,10.1,53,12,76,6c3.2-1.2,6.5-2.5,9.7-3.9c24.9-14,49.9-14.2,74.8-0.6c12.5,6,24.9,9.1,37.2,9.1c12.5,0,24.9-3.1,37.2-9.1
		c24.9-13.6,49.9-13.4,74.8,0.6c3.2,1.4,6.3,2.7,9.7,3.9C342.8,377.8,368,375.8,395.7,365.7L395.7,365.7L395.7,365.7z"/>
	<path id="_50136888" class="st0" d="M395.7,346.1v-20.8c-31.3,13.2-59.8,13.8-85.5,2.1c-24.9-14-49.9-14.2-74.8-0.6
		c-12.5,6.2-24.9,9.3-37.4,9.1c-12.3,0.2-24.7-2.9-37.4-9.1c-24.9-13.6-49.9-13.4-74.8,0.6c-25.7,11.7-54.2,11.1-85.5-2.1v20.8
		c31.3,12.8,60,13.6,85.7,2.1c24.9-14,49.9-14.2,74.8-0.6c12.5,6,24.9,9.1,37.2,9.1c12.5,0,24.9-3.1,37.2-9.1
		c24.9-13.6,49.9-13.4,74.8,0.6C335.7,359.7,364.4,358.9,395.7,346.1L395.7,346.1L395.7,346.1z"/>
	<path id="_50138160" class="st0" d="M76.2,371.8c-23,6-48.3,4.1-76-6v20.8c31.7,12.8,60.4,13.8,85.9,2.1
		c24.9-14,49.9-14.2,74.8-0.6c12.3,6.2,24.7,9.1,37,9.1s24.7-2.9,37-9.1c24.9-13.6,49.9-13.4,74.8,0.6c25.5,11.7,54.2,10.7,85.9-2.1
		v-20.8c-27.7,10.1-52.8,12-76,6c-3.4-1.2-6.5-2.5-9.7-3.9c-24.9-14-49.9-14.2-74.8-0.6c-12.3,6-24.7,9.1-37.2,9.1
		c-12.3,0-24.7-3.1-37.2-9.1c-24.9-13.6-49.9-13.4-74.8,0.6C82.7,369.2,79.4,370.6,76.2,371.8L76.2,371.8L76.2,371.8z"/>
	<path id="_50138480" class="st1" d="M197.9,397.2c-12.3,0-24.7-2.9-37-9.1c-24.9-13.6-49.9-13.4-74.8,0.6
		c-25.5,11.7-54.2,10.7-85.9-2.1v8.9c0,1,0,1.9,0.2,2.9c0,0.8,0.2,2.7,0.4,5.8c0,0.8,0.2,1.4,0.2,2.1c31.3,12.8,59.6,13.6,85.1,1.9
		c24.9-14,49.9-14.2,74.8-0.6c12.3,6.2,24.7,9.1,37,9.1c12.3,0,24.7-2.9,37-9.1c24.9-13.6,49.9-13.4,74.8,0.6
		c25.5,11.7,54,10.9,85.1-1.9c0.2-0.8,0.2-1.4,0.2-2.1c0.4-3.1,0.4-5.1,0.4-5.8c0-1,0.2-1.9,0.2-2.9v-8.9
		c-31.7,12.8-60.4,13.8-85.9,2.1c-24.9-14-49.9-14.2-74.8-0.6C222.7,394.3,210.2,397.2,197.9,397.2L197.9,397.2z"/>
	<path id="_50138672" class="st0" d="M197.9,416.8c-12.3,0-24.7-2.9-37-9.1c-24.9-13.6-49.9-13.4-74.8,0.6
		C60.6,420,32.3,419.2,1,406.3c0.4,2.1,0.6,4.3,1.4,6.2c0.8,2.5,1.6,4.3,2.2,5.4c0.2,0.2,0.4,0.6,0.6,1c2.4,4.1,5.7,8,9.7,11.7
		c8.7,7.8,21.6,11.7,38.2,12l103.1,1.7c0.8,0,1.2,0,1.8,0c1,0,2,0,2.8,0c0.2,0,0.2,0,0.6,0c9.5,0.8,18,4.3,25.1,11.3
		c6.9,7,10.7,15,11.5,24.3c0.8-9.3,4.6-17.3,11.5-24.3c7.1-7,15.6-10.5,25.1-11.3c0.4,0,0.6,0,0.6,0c1,0,2,0,2.8,0
		c0.6,0,1.2,0,1.8,0l103.1-1.7c16.8-0.4,29.5-4.3,38.2-12c4.2-3.7,7.3-7.6,9.7-11.7c0.4-0.4,0.6-0.8,0.6-1c0.4-1.2,1.2-2.9,2.2-5.4
		c0.8-1.9,1-4.1,1.4-6.2c-31.1,12.8-59.6,13.6-85.1,1.9c-24.9-14-49.9-14.2-74.8-0.6C222.7,413.9,210.2,416.8,197.9,416.8
		L197.9,416.8z"/>
</g>
<g>
	<path d="M569.8,40.3v30h-61.2V202h-36.7V40.3H569.8z"/>
	<path d="M685.4,133.6h-59.5V172h66.5v30H589.2V40.3H689v30h-63.1v33.6h59.5V133.6z"/>
	<path d="M865.4,119.5c0,53-32.2,85.2-79.4,85.2c-48,0-76.1-36.2-76.1-82.3c0-48.5,31-84.7,78.7-84.7
		C838.3,37.6,865.4,74.8,865.4,119.5z M748.6,121.6c0,31.7,14.9,54,39.4,54c24.7,0,38.9-23.5,38.9-55c0-29-13.9-54-39.1-54
		C763,66.7,748.6,90.2,748.6,121.6z"/>
	<path d="M1020.2,40.3V202h-36.7V70.3h-57.4V202h-36.7V40.3H1020.2z"/>
	<path d="M1200,119.5c0,53-32.2,85.2-79.4,85.2c-48,0-76.1-36.2-76.1-82.3c0-48.5,31-84.7,78.7-84.7
		C1172.9,37.6,1200,74.8,1200,119.5z M1083.1,121.6c0,31.7,14.9,54,39.4,54c24.7,0,38.9-23.5,38.9-55c0-29-13.9-54-39.1-54
		C1097.5,66.7,1083.1,90.2,1083.1,121.6z"/>
	<path d="M1224,42.4c11.3-1.9,27.1-3.4,49.4-3.4c22.6,0,38.6,4.3,49.4,13c10.3,8.2,17.3,21.6,17.3,37.4s-5.3,29.3-14.9,38.4
		c-12.5,11.8-31,17-52.6,17c-4.8,0-9.1-0.2-12.5-0.7V202H1224V42.4z M1260.2,115.9c3.1,0.7,7,1,12.2,1c19.4,0,31.4-9.8,31.4-26.4
		c0-14.9-10.3-23.8-28.6-23.8c-7.4,0-12.5,0.7-15.1,1.4V115.9z"/>
	<path d="M1396.8,71h-43.4V40.3h124.3V71h-44.2v131h-36.7V71z"/>
	<path d="M1516.8,160.5l-11.5,41.5h-37.9l49.4-161.8h48L1615,202h-39.4l-12.5-41.5H1516.8z M1557.8,133.1l-10.1-34.3
		c-2.9-9.6-5.8-21.6-8.2-31.2h-0.5c-2.4,9.6-4.8,21.8-7.4,31.2l-9.6,34.3H1557.8z"/>
	<path d="M1762.8,40.3V202h-36.5V70.3h-36.7v38.4c0,41.5-5.3,73.4-29.8,87.8c-8.2,4.6-19.2,7.9-32.2,7.9l-4.6-29.5
		c7.9-1,14.4-4.3,18.5-8.6c9.8-10.1,12.2-30.7,12.2-55.2V40.3H1762.8z"/>
</g>
<path d="M483.5,282.6v50.8h4.6l39.3-50.8h17.8l-43.3,52.5c18.9,2.6,26.2,14.1,32.1,29.6c4.3,11.7,7.5,22.3,12.6,32.5h-16
	c-4.1-7.8-7.3-18-10.4-27c-5.3-15.1-12.6-25.5-32-25.5h-4.8v52.5h-14.6V282.6H483.5z"/>
<path d="M608.1,397.2l-1.2-10.4h-0.5c-4.6,6.5-13.4,12.2-25.2,12.2c-16.7,0-25.2-11.7-25.2-23.6c0-19.9,17.7-30.8,49.5-30.6v-1.7
	c0-6.8-1.9-19-18.7-19c-7.7,0-15.6,2.4-21.4,6.1l-3.4-9.9c6.8-4.4,16.7-7.3,27-7.3c25.2,0,31.3,17.2,31.3,33.7v30.8
	c0,7.1,0.3,14.1,1.4,19.7H608.1z M605.9,355.2c-16.3-0.3-34.8,2.5-34.8,18.5c0,9.7,6.5,14.3,14.1,14.3c10.7,0,17.5-6.8,19.9-13.8
	c0.5-1.5,0.9-3.2,0.9-4.8V355.2z"/>
<path d="M645.4,314.9h18.4l15,41.5c2,6.1,5.6,16.2,7.5,22.6h0.3c1.9-6.1,6.5-19.2,9.7-28.2l13.3-35.9H728l5.8,82.3h-14.3l-1.9-39.3
	c-0.5-8.8-1.2-19.4-1.5-29.4h-0.5c-2.2,7.5-4.4,14.1-9,26.7l-15.8,41.5h-10.9l-14.6-40.6c-2.5-7.8-6.1-19.7-8.2-27.4h-0.7
	c-0.3,9.7-0.8,20.6-1.4,29.6l-2,38.9h-13.8L645.4,314.9z"/>
<path d="M764.9,314.9v27c0,10.4,3.9,17.5,17,17.5c6.5,0,13.1-2.4,17.7-5.8v-38.8h14.8v82.3h-14.8v-33h-0.3
	c-5.6,3.7-14.5,6.3-22.3,6.3c-15.6,0-27-8-27-26.9v-28.7H764.9z"/>
<path d="M884.4,397.2l-1.2-10.4h-0.5c-4.6,6.5-13.4,12.2-25.2,12.2c-16.7,0-25.2-11.7-25.2-23.6c0-19.9,17.7-30.8,49.5-30.6v-1.7
	c0-6.8-1.9-19-18.7-19c-7.7,0-15.6,2.4-21.4,6.1l-3.4-9.9c6.8-4.4,16.7-7.3,27-7.3c25.2,0,31.3,17.2,31.3,33.7v30.8
	c0,7.1,0.3,14.1,1.4,19.7H884.4z M882.2,355.2c-16.3-0.3-34.8,2.5-34.8,18.5c0,9.7,6.5,14.3,14.1,14.3c10.7,0,17.5-6.8,19.9-13.8
	c0.5-1.5,0.9-3.2,0.9-4.8V355.2z"/>
<path d="M975.2,314.9v11.9h-25.7v70.4h-14.8v-70.4H909v-11.9H975.2z"/>
<path d="M1044.7,394.2c-3.9,2-12.6,4.8-23.6,4.8c-24.8,0-41-16.8-41-42c0-25.3,17.3-43.7,44.2-43.7c8.8,0,16.7,2.2,20.7,4.3
	l-3.4,11.6c-3.6-2-9.2-3.9-17.3-3.9c-18.9,0-29.1,13.9-29.1,31.1c0,19,12.2,30.8,28.6,30.8c8.5,0,14.1-2.2,18.4-4.1L1044.7,394.2z"
	/>
<path d="M1077,314.9v35.7h3.6l30.9-35.7h18.2l-35.9,37.2c13.3,1.4,21.3,10.2,27.7,25c2.2,5.4,5.1,13.4,8.8,20.1h-15.6
	c-2.2-3.6-5.1-10-7.7-16.8c-5.6-13.3-13.3-19.4-27.2-19.4h-2.9v36.2h-14.8v-82.3H1077z"/>
<path d="M1217.1,355.4c0,30.4-21.1,43.7-41,43.7c-22.3,0-39.4-16.3-39.4-42.3c0-27.5,18-43.7,40.8-43.7
	C1201.1,313.1,1217.1,330.2,1217.1,355.4z M1151.8,356.2c0,18,10.4,31.6,25,31.6c14.3,0,25-13.4,25-32c0-13.9-7-31.6-24.6-31.6
	C1159.5,324.3,1151.8,340.6,1151.8,356.2z"/>
<path d="M1286.1,314.9V327h-35.7v70.2h-14.8v-82.3H1286.1z"/>
<path d="M1372.5,355.4c0,30.4-21.1,43.7-41,43.7c-22.3,0-39.4-16.3-39.4-42.3c0-27.5,18-43.7,40.8-43.7
	C1356.5,313.1,1372.5,330.2,1372.5,355.4z M1307.2,356.2c0,18,10.4,31.6,25,31.6c14.3,0,25-13.4,25-32c0-13.9-7-31.6-24.6-31.6
	C1314.8,324.3,1307.2,340.6,1307.2,356.2z"/>
<path d="M1442.2,314.9v35.7h3.6l30.9-35.7h18.2l-35.9,37.2c13.3,1.4,21.3,10.2,27.7,25c2.2,5.4,5.1,13.4,8.8,20.1h-15.6
	c-2.2-3.6-5.1-10-7.7-16.8c-5.6-13.3-13.3-19.4-27.2-19.4h-2.9v36.2h-14.8v-82.3H1442.2z"/>
<path d="M1508.8,341.8c0-10.5-0.3-19-0.7-26.9h13.4l0.7,14.1h0.3c6.1-10,15.8-16,29.2-16c19.9,0,34.8,16.8,34.8,41.8
	c0,29.6-18,44.2-37.4,44.2c-10.9,0-20.4-4.8-25.3-12.9h-0.3v44.7h-14.8V341.8z M1523.6,363.7c0,2.2,0.3,4.3,0.7,6.1
	c2.7,10.4,11.7,17.5,22.4,17.5c15.8,0,25-12.9,25-31.8c0-16.5-8.7-30.6-24.5-30.6c-10.2,0-19.7,7.3-22.6,18.5c-0.5,1.9-1,4.1-1,6.1
	V363.7z"/>
<path d="M1651.1,397.2l-1.2-10.4h-0.5c-4.6,6.5-13.4,12.2-25.2,12.2c-16.7,0-25.2-11.7-25.2-23.6c0-19.9,17.7-30.8,49.5-30.6v-1.7
	c0-6.8-1.9-19-18.7-19c-7.7,0-15.6,2.4-21.4,6.1l-3.4-9.9c6.8-4.4,16.7-7.3,27-7.3c25.2,0,31.3,17.2,31.3,33.7v30.8
	c0,7.1,0.3,14.1,1.4,19.7H1651.1z M1648.9,355.2c-16.3-0.3-34.8,2.5-34.8,18.5c0,9.7,6.5,14.3,14.1,14.3c10.7,0,17.5-6.8,19.9-13.8
	c0.5-1.5,0.9-3.2,0.9-4.8V355.2z"/>
<path d="M1748.7,397.2h-14.8v-34.5h-11c-6.3,0-10.5,1.7-13.8,4.6c-6.1,4.9-8.3,15.1-11.6,23.1c-1,2.5-2.2,4.8-3.4,6.8h-16
	c1.9-2.7,3.6-5.8,5.1-9.3c3.6-8,5.6-18.7,12.9-24.8c2.5-2.2,5.6-4.1,9.3-4.8v-0.5c-10.7-1.2-21.8-7.8-21.8-20.4
	c0-8.5,4.6-14.3,10.9-17.9c6.8-3.9,16.8-5.6,27.5-5.6c9.9,0,19.4,0.8,26.5,1.7V397.2z M1733.9,324.8c-3.7-0.5-7.1-0.9-12.4-0.9
	c-10.2,0-22.3,2.9-22.3,14.3c0,10.5,13.1,14.3,21.9,14.3c6.1,0,9.3,0,12.7,0V324.8z"/>
</svg>
