<?xml version="1.0" encoding="utf-8"?>
<!-- Generator: Adobe Illustrator 21.1.0, SVG Export Plug-In . SVG Version: 6.00 Build 0)  -->
<svg version="1.1" id="Layer_1" xmlns="http://www.w3.org/2000/svg" xmlns:xlink="http://www.w3.org/1999/xlink" x="0px" y="0px"
	 viewBox="0 0 25 41" style="enable-background:new 0 0 25 41;" xml:space="preserve">
<style type="text/css">
	.st0{fill:url(#SVGID_1_);stroke:#009601;stroke-width:0.5;stroke-miterlimit:10;}
	.st1{fill:#FFFFFF;stroke:#009601;stroke-width:0.5;stroke-miterlimit:10;}
</style>
<radialGradient id="SVGID_1_" cx="12.5" cy="20.4156" r="16.8322" gradientUnits="userSpaceOnUse">
	<stop  offset="0" style="stop-color:#85FF7F"/>
	<stop  offset="1" style="stop-color:#33A02C"/>
</radialGradient>
<path class="st0" d="M12.5,0.2C5.6,0.2,0,5.8,0,12.7c0,8.6,11.2,27.1,11.7,27.6c0.4,0.5,1.2,0.5,1.7,0C13.8,39.8,25,21.2,25,12.7
	C25,5.8,19.4,0.2,12.5,0.2z M12.5,18.9c-3.5,0-6.3-2.8-6.3-6.3S9,6.4,12.5,6.4s6.3,2.8,6.3,6.3S16,18.9,12.5,18.9z"/>
<g>
	<path class="st1" d="M12.5,18.9c-3.5,0-6.3-2.8-6.3-6.3S9,6.4,12.5,6.4s6.3,2.8,6.3,6.3S16,18.9,12.5,18.9z"/>
</g>
</svg>
